<svg xmlns="http://www.w3.org/2000/svg" width="28" height="28" viewBox="0 0 28 28" fill="none" style="height:28px;width:28px;margin-right:8px"><path fill-rule="evenodd" clip-rule="evenodd" d="M18.965 12.1658H18.9987H21.3452C21.9849 12.1658 22.5 11.6508 22.5 11.011C22.5 10.3713 21.9849 9.85625 21.3452 9.85625H18.9987C18.9042 9.85625 18.8209 9.78212 18.8136 9.67985V9.67508V9.66789V9.66034V9.65291V9.64561V9.63822V9.63075V9.62346V9.61586V9.60845V9.60127V9.59378L19.0115 7.11904C19.0582 6.55298 18.6588 6.10729 18.1645 6.01741C17.9261 5.97632 17.7087 6.00796 17.5123 6.11235C17.316 6.21674 17.1842 6.30894 17.1169 6.38896C16.8705 6.62834 16.7084 6.94918 16.6701 7.30164L16.6696 7.30743L16.4401 9.64659L16.4392 9.65522L16.4387 9.66387C16.4379 9.6755 16.433 9.69687 16.4168 9.72455L16.3911 9.76867L16.3738 9.81672C16.3449 9.89725 16.2717 9.94508 16.2005 9.94508H12.9657C12.9165 9.94508 12.8657 9.9235 12.8296 9.8835C12.7967 9.84713 12.7755 9.79254 12.779 9.72955L13.0001 7.31931C13.0607 6.68677 12.5659 6.14764 11.9367 6.14764C11.2617 6.14764 10.6769 6.64895 10.6003 7.33714L10.3412 9.6615L10.3399 9.67312L10.338 9.68083L10.3329 9.70252C10.331 9.71089 10.3287 9.72114 10.3264 9.73256L10.3248 9.7404L10.3235 9.74829C10.3099 9.828 10.2388 9.89326 10.1454 9.89326H7.67295C7.01842 9.89326 6.48856 10.4231 6.48856 11.0777C6.48856 11.7322 7.01842 12.262 7.67295 12.262H9.83445C9.88955 12.262 9.94568 12.2879 9.97795 12.3236C10.0086 12.3575 10.0283 12.4132 10.0228 12.4683L9.6606 15.6614C9.64828 15.759 9.56646 15.8264 9.4862 15.83H7.15478C6.51505 15.83 6 16.3451 6 16.9848C6 17.6245 6.51505 18.1396 7.15478 18.1396H9.50135C9.59577 18.1396 9.67909 18.2137 9.68641 18.316V18.3214V18.3288V18.3362V18.3436V18.3511V18.3585V18.3659V18.3733V18.3807V18.388V18.3955L9.49594 20.8832C9.4332 21.6436 10.2013 22.2118 10.9075 21.9161C11.4127 21.7047 11.7641 21.2349 11.8226 20.6855L11.8231 20.681L12.0525 18.3418L12.0534 18.3332L12.054 18.3245C12.0547 18.3129 12.0596 18.2915 12.0758 18.2638L12.1015 18.2197L12.1188 18.1717C12.1476 18.0911 12.2209 18.0433 12.2921 18.0433H15.5269C15.5761 18.0433 15.6269 18.0649 15.663 18.1049C15.6959 18.1413 15.7171 18.1959 15.7136 18.2589L15.4925 20.6691C15.4319 21.3016 15.9266 21.8408 16.5559 21.8408C17.2309 21.8408 17.8157 21.3395 17.8923 20.6513L18.1514 18.3269L18.1526 18.3153L18.1546 18.3076L18.1597 18.2859C18.1617 18.2775 18.164 18.2672 18.1662 18.2558L18.1678 18.248L18.1691 18.2402C18.1827 18.1604 18.2538 18.0951 18.3472 18.0951H20.8197C21.4742 18.0951 22.004 17.5653 22.004 16.9108C22.004 16.2562 21.4742 15.7264 20.8197 15.7264H18.6581C18.6031 15.7264 18.547 15.7005 18.5147 15.6648C18.484 15.6309 18.4643 15.5752 18.4698 15.5202L18.8319 12.3282C18.8422 12.2463 18.8999 12.1862 18.965 12.1658Z" stroke="#888888" stroke-width="1.3"/><path fill-rule="evenodd" clip-rule="evenodd" d="M16.0997 12.2939L16.1043 12.2989L16.1089 12.3038C16.1311 12.3271 16.1543 12.3753 16.1503 12.4416L15.8698 15.7121C15.8585 15.8191 15.7727 15.8891 15.6823 15.8891H12.4327C12.3698 15.8891 12.3239 15.8651 12.2966 15.8349C12.2604 15.7949 12.2424 15.7456 12.2461 15.6868L12.5192 12.4162C12.5306 12.3095 12.6163 12.2397 12.7066 12.2397H15.9636C16.0266 12.2397 16.0725 12.2637 16.0997 12.2939Z" stroke="#888888" stroke-width="1.3"/></svg>