<svg xmlns="http://www.w3.org/2000/svg" width="28" height="28" viewBox="0 0 40 40" fill="none" style="height:28px;width:28px;margin-right:8px"><path fill-rule="evenodd" clip-rule="evenodd" d="M17.9807 29.6024C16.9527 28.7939 16.0263 27.3963 15.3883 25.5742C14.4825 26.0272 13.7148 26.5403 13.1395 27.0138C14.4501 28.2958 16.1183 29.2128 17.9807 29.6024ZM17.2722 26.8879C16.976 26.3629 16.7066 25.7603 16.4774 25.0888C17.3083 24.7626 18.2199 24.5029 19.1817 24.3667C19.256 24.3556 19.3306 24.3461 19.4055 24.3366V29.0758C18.7647 28.8224 17.9898 28.1588 17.2722 26.8879ZM19.0143 23.1908C19.1439 23.1718 19.2743 23.1559 19.4055 23.1409V20.5951H15.6979C15.7374 21.8129 15.8971 22.9374 16.1438 23.9438C17.0282 23.6049 17.9943 23.3357 19.0143 23.1908ZM14.5095 20.5951C14.5518 21.9816 14.7405 23.2676 15.0393 24.4221C13.9448 24.9503 13.0224 25.5655 12.3411 26.1325C11.1099 24.5979 10.3308 22.6848 10.2056 20.5951H14.5095ZM15.6978 19.4073C15.7431 18.0073 15.9471 16.7316 16.2593 15.6151C16.938 15.8337 17.6565 16.0063 18.404 16.1124C18.7327 16.1591 19.0669 16.1932 19.4055 16.2122V19.4073H15.6978ZM20.5933 20.5951V23.0728C21.6804 23.0657 22.807 23.2161 23.9411 23.578C24.1396 22.6674 24.2676 21.6672 24.3024 20.5951H20.5933ZM24.3025 19.4073H20.5933V16.2177C21.6194 16.1678 22.6746 15.9722 23.7333 15.5874C24.0499 16.7103 24.2569 17.9954 24.3025 19.4073ZM25.4908 20.5951C25.4536 21.8169 25.3024 22.9619 25.0624 24.0072C26.0182 24.434 26.972 25.0247 27.9051 25.811C28.9928 24.3334 29.6765 22.5407 29.7931 20.5951H25.4908ZM29.7933 19.4073H25.4909C25.443 17.8323 25.2062 16.3864 24.8339 15.117C25.6709 14.7037 26.5047 14.1621 27.3222 13.4692C28.7474 15.0664 29.6579 17.1323 29.7933 19.4073ZM14.5095 19.4073H10.2054C10.3336 17.2519 11.1576 15.2841 12.456 13.725C13.1937 14.2452 14.1053 14.7686 15.1418 15.2018C14.7837 16.4513 14.5562 17.8671 14.5095 19.4073ZM20.5933 29.0766V24.2598C21.5813 24.2534 22.6058 24.3912 23.6397 24.7293C23.3874 25.5465 23.0763 26.2711 22.7281 26.8879C22.0099 28.1604 21.2343 28.8232 20.5933 29.0766ZM22.0202 29.6024C23.1229 28.7345 24.1085 27.1896 24.7467 25.1688C25.5502 25.5465 26.3537 26.0565 27.1444 26.7232C25.7952 28.1565 24.0195 29.1835 22.0202 29.6024ZM13.2792 12.8508C13.9061 13.2792 14.6644 13.7083 15.518 14.0718C16.1494 12.42 17.0221 11.1499 17.9836 10.3952C16.1856 10.7706 14.5684 11.6377 13.2792 12.8508ZM19.4055 15.0228C19.1237 15.0046 18.8455 14.9761 18.5714 14.9365C17.8964 14.8407 17.246 14.6839 16.6309 14.4867C16.8239 13.9831 17.0398 13.5238 17.2722 13.1121C17.9898 11.8404 18.7647 11.1776 19.4055 10.9242V15.0228ZM23.3589 14.4598C22.4251 14.8035 21.4966 14.9793 20.5933 15.0284V10.9234C21.2343 11.1768 22.0099 11.8396 22.7281 13.1121C22.9563 13.5159 23.1686 13.9665 23.3589 14.4598ZM26.4759 12.629C25.8061 13.1865 25.1274 13.6323 24.4474 13.9815C23.8191 12.3741 22.961 11.1364 22.0174 10.3952C23.7029 10.7476 25.2295 11.5331 26.4759 12.629ZM30.9987 19.9988C30.9987 25.8743 26.3918 30.6738 20.5933 30.9826V31H19.4055V30.9826C13.6068 30.6738 9 25.8743 9 19.9988C9 13.9245 13.9246 9 19.9993 9C26.0741 9 30.9987 13.9245 30.9987 19.9988Z" fill="#888888"/></svg>