<svg xmlns="http://www.w3.org/2000/svg" width="24" height="24" viewBox="0 0 24 24" fill="none">
<path d="M11.0626 19.684L4.2825 12.7313C4.17978 12.626 4.10684 12.5119 4.06369 12.389C4.02123 12.2661 4 12.1344 4 11.9939C4 11.8535 4.02123 11.7218 4.06369 11.5989C4.10684 11.476 4.17978 11.3619 4.2825 11.2565L11.0626 4.30387C11.2509 4.11074 11.4862 4.00962 11.7683 4.00049C12.0512 3.99206 12.2953 4.09319 12.5008 4.30387C12.7063 4.497 12.8134 4.73824 12.8223 5.02758C12.8306 5.31763 12.7319 5.56799 12.5265 5.77868L7.49278 10.9405H18.9727C19.2638 10.9405 19.5079 11.0413 19.7052 11.2428C19.9017 11.4451 20 11.6955 20 11.9939C20 12.2924 19.9017 12.5424 19.7052 12.744C19.5079 12.9462 19.2638 13.0474 18.9727 13.0474H7.49278L12.5265 18.2092C12.7148 18.4023 12.8134 18.6481 12.8223 18.9466C12.8306 19.245 12.7319 19.4908 12.5265 19.684C12.3381 19.8947 12.0984 20 11.8074 20C11.5163 20 11.2681 19.8947 11.0626 19.684Z" fill="#fff"/>
</svg>