<svg xmlns="http://www.w3.org/2000/svg" width="24" height="24" viewBox="0 0 24 24">
    <g fill="none" fill-rule="evenodd">
        <circle cx="12" cy="12" r="12" fill="#4b4b4b"/>
        <path fill="#FFF" d="M18.155 18.234H5.845a.883.883 0 0 1-.88-.886V8.48c0-.49.394-.887.88-.887h2.198l.44-.887s.393-.886.88-.886h5.275c.486 0 .88.886.88.886l.439.887h2.198c.486 0 .88.397.88.887v8.867a.884.884 0 0 1-.88.886zM12 16.461c-1.942 0-3.517-1.588-3.517-3.547 0-1.958 1.575-3.547 3.517-3.547s3.517 1.589 3.517 3.547c0 1.959-1.575 3.547-3.517 3.547zm0-6.207c-1.457 0-2.638 1.191-2.638 2.66 0 1.47 1.181 2.66 2.638 2.66 1.457 0 2.638-1.19 2.638-2.66 0-1.47-1.181-2.66-2.638-2.66z"/>
    </g>
</svg>