<svg xmlns="http://www.w3.org/2000/svg" width="32" height="32" viewBox="0 0 32 32" fill="none"><rect width="32" height="32" rx="16" fill="black" fill-opacity="0.3"/><path d="M19.1613 24C20.1462 24 20.8073 23.3318 20.8555 22.3044L21.3307 11.8581H22.1572C22.4396 11.8581 22.6668 11.6066 22.6668 11.3121C22.6668 11.0175 22.4396 10.7732 22.1572 10.7732H19.0098V9.674C19.0098 8.63224 18.3624 8 17.3018 8H14.6847C13.6241 8 12.9767 8.63224 12.9767 9.674V10.7732H9.85003C9.57454 10.7732 9.3335 11.0175 9.3335 11.3121C9.3335 11.6138 9.57454 11.8581 9.85003 11.8581H10.6765L11.1517 22.3116C11.1999 23.339 11.8473 24 12.8459 24H19.1613ZM17.9148 10.7732H14.0718V9.74585C14.0718 9.33633 14.3473 9.0705 14.7605 9.0705H17.2261C17.6393 9.0705 17.9148 9.33633 17.9148 9.74585V10.7732ZM19.0511 22.9151H12.9423C12.5497 22.9151 12.2536 22.6062 12.2329 22.1823L11.7509 11.8581H20.2219L19.7674 22.1823C19.7536 22.6134 19.4575 22.9151 19.0511 22.9151ZM13.9616 21.6866C14.2233 21.6866 14.3955 21.5141 14.3886 21.2627L14.1751 13.5752C14.1682 13.3238 13.996 13.1585 13.7481 13.1585C13.4864 13.1585 13.3142 13.3309 13.3211 13.5824L13.5277 21.2627C13.5346 21.5213 13.7068 21.6866 13.9616 21.6866ZM16.0002 21.6866C16.2619 21.6866 16.4478 21.5141 16.4478 21.2627V13.5824C16.4478 13.3309 16.2619 13.1585 16.0002 13.1585C15.7385 13.1585 15.5594 13.3309 15.5594 13.5824V21.2627C15.5594 21.5141 15.7385 21.6866 16.0002 21.6866ZM18.0456 21.6866C18.2936 21.6866 18.4657 21.5213 18.4726 21.2627L18.6792 13.5824C18.6861 13.3309 18.5139 13.1585 18.2522 13.1585C18.0043 13.1585 17.8321 13.3238 17.8252 13.5824L17.6186 21.2627C17.6117 21.5141 17.7839 21.6866 18.0456 21.6866Z" fill="white"/></svg>