<svg xmlns="http://www.w3.org/2000/svg" width="40" height="40" viewBox="0 0 40 40" fill="none">
<path d="M19.6667 24.4501C18.7417 24.4501 18 25.2056 18 26.1543C18 27.0778 18.7417 27.8333 19.6667 27.8333C20.5917 27.8333 21.3333 27.0778 21.3333 26.1543C21.3333 25.2056 20.5917 24.4501 19.6667 24.4501ZM19.6667 18.2376C18.7417 18.2376 18 18.9848 18 19.9167C18 20.8401 18.7417 21.5873 19.6667 21.5873C20.5917 21.5873 21.3333 20.8401 21.3333 19.9167C21.3333 18.9848 20.5917 18.2376 19.6667 18.2376ZM19.6667 12C18.7417 12 18 12.7472 18 13.679C18 14.6277 18.7417 15.3749 19.6667 15.3749C20.5917 15.3749 21.3333 14.6277 21.3333 13.679C21.3333 12.7472 20.5917 12 19.6667 12Z" fill="white"/>
</svg>