<svg xmlns="http://www.w3.org/2000/svg" xmlns:xlink="http://www.w3.org/1999/xlink" width="11px" height="6px" viewBox="0 0 11 6" version="1.1">
    <title>Icons/Home </title>
    <defs>
        <path d="M5.50316638,6 C5.66148532,6 5.81980426,5.93865031 5.92746114,5.82208589 L10.8290155,0.957055215 C10.9366724,0.852760736 11,0.717791411 11,0.564417178 C11,0.245398773 10.7530225,0 10.4237191,0 C10.2654001,0 10.1197467,0.0613496933 10.0120898,0.159509202 L5.50316638,4.62576687 L0.98791019,0.159509202 C0.886586068,0.0613496933 0.740932642,0 0.576280944,0 C0.246977547,0 0,0.245398773 0,0.564417178 C0,0.717791411 0.0633275763,0.852760736 0.170984456,0.963190184 L5.07253886,5.82208589 C5.19286126,5.93865031 5.33851468,6 5.50316638,6 Z" id="path-1"/>
    </defs>
    <g id="Screens" stroke="none" stroke-width="1" fill="none" fill-rule="evenodd">
        <g id="Multiple-Account-Experience" transform="translate(-309.000000, -225.000000)">
            <g id="Group-3" transform="translate(131.000000, 140.000000)">
                <g id="Group-2" transform="translate(3.000000, 0.000000)">
                    <g id="Bars/Navigation-bar-Copy" transform="translate(4.000000, 70.000000)">
                        <g id="Group" transform="translate(164.000000, 6.000000)">
                            <g id="Icon.Secondary" transform="translate(7.000000, 9.000000)">
                                <mask id="mask-2" fill="white">
                                    <use xlink:href="#path-1"/>
                                </mask>
                                <use id="Mask" fill="#4b4b4b" fill-rule="nonzero" xlink:href="#path-1"/>
                                <g id="Group" mask="url(#mask-2)">
                                    <g transform="translate(-7.000000, -9.000000)" id="Icon.Secondary">
                                        <rect id="Container" fill="#4b4b4b" x="0" y="0" width="24" height="24"/>
                                    </g>
                                </g>
                            </g>
                        </g>
                    </g>
                </g>
            </g>
        </g>
    </g>
</svg>