<svg xmlns="http://www.w3.org/2000/svg" width="22px" height="22px" viewBox="0 0 28 28" version="1.1"><title>Icons/Language</title><g id="Icons/Language" stroke="none" stroke-width="1" fill="none" fill-rule="evenodd"><rect id="Bound" x="0" y="0" width="28" height="28"/><g id="Group-2" transform="translate(2.500000, 2.500000)" fill="#888888"><path d="M9.38948861,21.5388547 C8.31471529,20.6936256 7.34616091,19.2324803 6.67912589,17.3276104 C5.73201398,17.8011374 4.92945255,18.3375805 4.32790402,18.8326315 C5.69815307,20.1729115 7.44236231,21.1315553 9.38948861,21.5388547 Z M8.64877094,18.7010042 C8.33905541,18.1521434 8.05740552,17.5221538 7.81772991,16.8201418 C8.68644016,16.4790699 9.6395957,16.207537 10.645157,16.0651478 C10.7228135,16.0535579 10.8008013,16.0436238 10.8791201,16.0336897 L10.8791201,20.9883382 C10.2091875,20.723428 9.39900941,20.0296944 8.64877094,18.7010042 Z M10.47014,14.8357989 C10.6056664,14.8159306 10.7419379,14.7993737 10.8791201,14.7836447 L10.8791201,12.122125 L7.00275005,12.122125 C7.04406201,13.3953497 7.21104844,14.5708887 7.46893774,15.6230789 C8.39361369,15.2687615 9.40372841,14.9872944 10.47014,14.8357989 Z M5.76032799,12.122125 C5.8044548,13.5716805 6.00182497,14.9160998 6.31418976,16.1230969 C5.16987326,16.675269 4.20545835,17.3185041 3.49313747,17.9112407 C2.20592629,16.3068783 1.39136038,14.3068063 1.26047017,12.122125 L5.76032799,12.122125 Z M7.00266726,10.8803585 C7.05002286,9.41672965 7.26328862,8.08307238 7.58972762,6.91581183 C8.29931645,7.14429687 9.05054839,7.32476694 9.83208129,7.43569809 C10.1757405,7.48454091 10.5251122,7.52013821 10.8791201,7.54000648 L10.8791201,10.8803585 L7.00266726,10.8803585 Z M12.1209627,12.122125 L12.1209627,14.7124501 C13.2575797,14.7049995 14.435426,14.8622899 15.62122,15.2406148 C15.8287733,14.2885937 15.9625611,13.2430263 15.9989885,12.122125 L12.1209627,12.122125 Z M15.9990713,10.8803585 L12.1209627,10.8803585 L12.1209627,7.54580139 C13.1938318,7.49364719 14.2970847,7.28916964 15.4038976,6.88683727 C15.7349728,8.06072058 15.9513846,9.40431199 15.9990713,10.8803585 Z M17.2414106,12.122125 C17.2024995,13.3994889 17.0444544,14.5965518 16.7935194,15.6893064 C17.7927887,16.1355145 18.790071,16.7530864 19.7655797,17.5751359 C20.9028591,16.0303783 21.6176637,14.1561386 21.7395298,12.122125 L17.2414106,12.122125 Z M21.7397782,10.8803585 L17.2414934,10.8803585 C17.1914885,9.23377605 16.9438651,7.72213224 16.5545889,6.39509772 C17.4297567,5.96296296 18.3014474,5.39671742 19.156249,4.6723536 C20.6462944,6.34211568 21.5982081,8.50196163 21.7397782,10.8803585 Z M5.7602452,10.8803585 L1.2602218,10.8803585 C1.3943408,8.62696613 2.25584836,6.56977288 3.61326504,4.93974733 C4.38461483,5.48364108 5.33768758,6.0308462 6.42131938,6.48367707 C6.04694525,7.79001548 5.80909101,9.2702012 5.7602452,10.8803585 Z M12.1209627,20.989166 L12.1209627,15.9533888 C13.1540101,15.946766 14.2251407,16.0908109 15.3061232,16.4443005 C15.042273,17.2986359 14.7169931,18.0561135 14.3529676,18.7010042 C13.6020669,20.0313501 12.7912265,20.7242558 12.1209627,20.989166 Z M13.6129123,21.5388547 C14.7657561,20.6315373 15.796237,19.0164129 16.4635204,16.9037541 C17.3035855,17.2986359 18.1435678,17.8317676 18.9703038,18.5288126 C17.5596534,20.0272109 15.7031816,21.100925 13.6129123,21.5388547 Z M4.4739447,4.02580715 C5.12938919,4.47367095 5.92226426,4.9223626 6.8146523,5.30234316 C7.47481579,3.57545981 8.3872389,2.24759745 9.39246903,1.45866177 C7.5126506,1.85106 5.82184059,2.75754958 4.4739447,4.02580715 Z M10.8791201,6.29658424 C10.5845551,6.27754382 10.2936328,6.24774142 10.0070983,6.20634921 C9.30131779,6.10618004 8.62136761,5.94226685 7.97825876,5.73613361 C8.18001677,5.20962459 8.40578375,4.72947486 8.64877094,4.29899579 C9.39900941,2.96947774 10.2091875,2.276572 10.8791201,2.01166181 L10.8791201,6.29658424 Z M15.0124688,5.7079869 C14.036215,6.06727135 13.0654253,6.2510528 12.1209627,6.30237915 L12.1209627,2.01083396 C12.7912265,2.27574416 13.6020669,2.96864989 14.3529676,4.29899579 C14.591567,4.72119642 14.8135256,5.19223986 15.0124688,5.7079869 Z M18.2713948,3.79401073 C17.5710784,4.37681316 16.8614896,4.84288954 16.1505761,5.2079689 C15.4936414,3.52744484 14.5965344,2.2335241 13.6099319,1.45866177 C15.3721892,1.82705251 16.968288,2.64827412 18.2713948,3.79401073 Z M23,11.4987582 C23,17.6413634 18.1834723,22.6589281 12.1209627,22.9817874 L12.1209627,23 L10.8791201,23 L10.8791201,22.9817874 C4.81652766,22.6589281 0,17.6413634 0,11.4987582 C0,5.14836411 5.14876194,0 11.4999586,0 C17.8512381,0 23,5.14836411 23,11.4987582 Z" id="Shape"/></g></g></svg>