<svg xmlns="http://www.w3.org/2000/svg" width="16" height="16" viewBox="0 0 16 16" fill="none">
<path d="M2.66421 13.5H13.5138C14.145 13.5 14.6338 13.3308 14.9803 12.9924C15.3268 12.654 15.5 12.1509 15.5 11.483V4.51032C15.5 3.84689 15.3173 3.34598 14.9518 3.00759C14.5864 2.6692 14.0477 2.5 13.3358 2.5H2.48624C1.85501 2.5 1.36616 2.6692 1.0197 3.00759C0.673232 3.34598 0.5 3.84689 0.5 4.51032V11.483C0.5 12.1509 0.682724 12.654 1.04817 12.9924C1.41362 13.3308 1.9523 13.5 2.66421 13.5ZM2.64998 12.418C2.32724 12.418 2.07926 12.339 1.90603 12.1809C1.7328 12.0229 1.64618 11.7835 1.64618 11.463V4.53036C1.64618 4.21423 1.7328 3.97713 1.90603 3.81906C2.07926 3.661 2.32724 3.58197 2.64998 3.58197H13.35C13.6728 3.58197 13.9207 3.661 14.094 3.81906C14.2672 3.97713 14.3538 4.21645 14.3538 4.53704V11.4696C14.3538 11.7858 14.2672 12.0229 14.094 12.1809C13.9207 12.339 13.6728 12.418 13.35 12.418H2.64998ZM8.01068 9.69976C8.25273 9.69976 8.49122 9.65078 8.72615 9.55282C8.96108 9.45487 9.19957 9.29458 9.44162 9.07195L14.8806 4.04948L14.126 3.33485L8.80802 8.26381C8.66089 8.40184 8.52326 8.4998 8.39511 8.55768C8.26697 8.61556 8.13882 8.64451 8.01068 8.64451C7.88253 8.64451 7.75439 8.61445 7.62625 8.55434C7.4981 8.49423 7.36284 8.39739 7.22046 8.26381L1.87399 3.31481L1.11224 4.02945L6.57262 9.07195C6.81467 9.29458 7.05316 9.45487 7.28809 9.55282C7.52302 9.65078 7.76388 9.69976 8.01068 9.69976ZM14.0477 12.605L14.8023 11.8904L10.481 7.86976L9.71927 8.5844L14.0477 12.605ZM1.21191 11.8904L1.96654 12.605L6.30209 8.5844L5.54034 7.86976L1.21191 11.8904Z" fill="#809B9D"/>
</svg>