<svg xmlns="http://www.w3.org/2000/svg" width="22px" height="22px" viewBox="0 0 28 28" version="1.1"><title>Icons/Home- Hashtag</title><g id="Icons/Home--Hashtag" stroke="none" stroke-width="1" fill="none" fill-rule="evenodd"><rect id="Bound" x="0" y="0" width="28" height="28"/><path d="M17.8985092,2.67711271 C19.4826604,2.01655759 21.1927365,3.29253538 21.0550872,5.03240579 L20.8554336,7.55827078 L23.0389965,7.55827078 C24.3981288,7.55827078 25.5,8.68214359 25.5,10.0684975 C25.5,11.4548515 24.3981288,12.5787358 23.0389965,12.5787358 L20.7455171,12.5787358 L20.4510534,15.2656403 L22.3666454,15.2656403 C23.7487756,15.2656403 24.8691353,16.4083825 24.8691353,17.8181248 C24.8691353,19.2278671 23.7487756,20.3707243 22.3666454,20.3707243 L19.8841095,20.3707243 L19.6165895,22.849962 C19.4664266,24.2410764 18.3116827,25.2925188 16.9395858,25.2874594 C15.5659107,25.282285 14.4914341,24.0777947 14.615668,22.6824257 L14.8109249,20.4913458 L12.1051738,20.4913458 L11.8768518,22.8851481 C11.7733949,23.9695918 11.0915966,24.9073119 10.1041739,25.3232204 L9.82136709,24.6245585 L10.1010174,25.3246002 C8.52783523,25.9785321 6.82966389,24.7164332 6.95797879,22.9886365 L7.14737347,20.4383367 L4.96104861,20.4383367 C3.60184866,20.4383367 2.5,19.3145674 2.5,17.9281675 C2.5,16.5417675 3.60184866,15.4179982 4.96104861,15.4179982 L7.25287082,15.4179982 L7.54725554,12.7310937 L5.63171998,12.7310937 C4.24960102,12.7310937 3.12917364,11.5882596 3.12917364,10.1785287 C3.12917364,8.76880939 4.24958974,7.62598671 5.63170871,7.62598671 L8.11428969,7.62596371 L8.38180968,5.14668001 C8.53190497,3.75558859 9.6866714,2.70414619 11.0587457,2.70926312 C12.4324433,2.71438004 13.50692,3.91883583 13.3826861,5.31426226 L13.1874292,7.50528471 L15.8938566,7.50528471 L16.1222576,5.11086151 C16.2257483,4.02634881 16.9095983,3.0893761 17.8985092,2.67711271 Z M20.1120595,11.0669999 L23.0389965,11.0669999 C23.5795605,11.0669999 24.0178739,10.6199529 24.0178739,10.0684975 C24.0178739,9.51704221 23.5795605,9.07000671 23.0389965,9.07000671 L20.7139513,9.07000671 L20.0594123,9.07000671 C19.6564976,9.07000671 19.3287772,8.74214387 19.3186311,8.33376705 C19.3144599,8.29016393 19.3141217,8.24559491 19.3177292,8.20042796 L19.5778087,4.91094487 C19.6266229,4.29445282 19.0205599,3.84232339 18.4593654,4.07642571 C17.9795656,4.27639984 17.6476739,4.731013 17.5975069,5.25715965 L17.3039451,8.33429599 C17.2922207,8.4567113 17.2524253,8.56995063 17.1912102,8.66758621 C17.0953855,8.97179619 16.8156902,9.19195057 16.4856023,9.19195057 L12.3605185,9.19195057 C12.152297,9.19195057 11.9536694,9.10260556 11.813258,8.9457861 C11.6728467,8.78896664 11.6035936,8.57913811 11.6224316,8.36764226 L11.9066251,5.17737007 C11.9522602,4.66505637 11.5577668,4.22286183 11.0534246,4.22097604 C10.4391771,4.2186878 9.92221976,4.68938765 9.85502974,5.3121465 L9.52415272,8.37857754 C9.51968842,8.41996141 9.51203372,8.46019541 9.50145918,8.49904956 C9.44623034,8.8608336 9.13944478,9.13767664 8.76925709,9.13768814 L5.63171998,9.13771113 C5.06815807,9.13771113 4.61128849,9.60370801 4.61128849,10.1785287 C4.61128849,10.7533494 5.06815807,11.2193348 5.63171998,11.2193348 L8.37574454,11.2193348 C8.58661523,11.2193348 8.7874976,11.3109681 8.92808933,11.4712831 C9.06866979,11.6315867 9.13564561,11.8453478 9.11221929,12.0591089 L8.65213677,16.2583242 C8.60866618,16.6551449 8.27146473,16.9456024 7.88631712,16.9296192 L4.96104861,16.9296192 C4.42039444,16.9296192 3.98211485,17.3766892 3.98211485,17.9281675 C3.98211485,18.4796458 4.42039444,18.9267158 4.96104861,18.9267158 L7.28599234,18.9267158 L7.94061026,18.9267158 C8.34785392,18.9267158 8.67837019,19.2616733 8.6816395,19.676317 C8.68452551,19.7144927 8.6846157,19.7532433 8.68169587,19.792569 L8.43585481,23.1027037 C8.39074956,23.7100658 8.98712861,24.1539162 9.54022872,23.9252067 C10.0201075,23.7223694 10.3513791,23.2662154 10.4016927,22.7387694 L10.695153,19.6624035 C10.7067309,19.5409771 10.7460528,19.4285197 10.8063434,19.3314705 C10.9014579,19.0260647 11.1817395,18.8047144 11.512718,18.8047144 L15.6378356,18.8047144 C15.846057,18.8047144 16.044696,18.8940594 16.185051,19.0509019 C16.3255187,19.2077444 16.3947379,19.4174809 16.3759112,19.6290572 L16.0917064,22.8192604 C16.0460488,23.3316431 16.440621,23.7737687 16.9448844,23.7757235 C17.559177,23.7780232 18.0761794,23.3072659 18.1433694,22.6844955 L18.4742464,19.6181335 C18.4786431,19.5767381 18.4863091,19.5364926 18.4969062,19.4976269 C18.5521463,19.1358774 18.858898,18.8589884 19.2291195,18.8589884 L22.3666454,18.8589884 C22.9302073,18.8589884 23.3870092,18.3929455 23.3870092,17.8181248 C23.3870092,17.2433041 22.9302073,16.7773762 22.3666454,16.7773762 L19.6225644,16.7773762 C19.4117501,16.7773762 19.2108565,16.6857314 19.070276,16.5254394 C18.9296956,16.3650323 18.862731,16.1512712 18.8861799,15.9375101 L19.3462511,11.7382948 C19.3896541,11.3415661 19.7268442,11.0510166 20.1120595,11.0669999 Z M12.0378711,11.1613238 C11.6520358,11.1613238 11.3307863,11.463211 11.2992431,11.8553517 L10.9529101,16.1613901 C10.9359886,16.3719315 11.0061774,16.5800583 11.1464873,16.7354059 C11.2867972,16.8907535 11.4844215,16.9790636 11.691493,16.9790636 L15.8376019,16.9790636 C16.2228172,16.9790636 16.5437735,16.6781423 16.5760157,16.2866111 L16.9311307,11.9805727 C16.9486046,11.7698012 16.8785962,11.5612836 16.7382413,11.4056025 C16.5978863,11.2499214 16.4000365,11.1613238 16.1927169,11.1613238 L12.0378711,11.1613238 Z M12.4958004,15.4673277 L12.7205938,12.6730252 L15.3866622,12.6730252 L15.156232,15.4673277 L12.4958004,15.4673277 Z" id="Shape" fill="#888888"/></g></svg>