<svg xmlns="http://www.w3.org/2000/svg" width="28" height="28" viewBox="0 0 28 28" fill="none">
<path fill-rule="evenodd" clip-rule="evenodd" d="M15.0294 6.98997C14.2549 6.72416 13.5552 6.87857 12.3221 7.66316C11.593 8.12705 10.7146 8.787 9.55711 9.66159C8.0229 10.8209 7.09285 12.7561 7.09285 14.8262V19.4579C7.09285 20.3816 7.76007 21.1305 8.58313 21.1305H8.98555C9.80861 21.1305 10.4758 20.3816 10.4758 19.4579V16.3614C10.4758 14.2177 12.0242 12.4799 13.9342 12.4799C15.9201 12.4799 17.53 14.2868 17.53 16.5157V19.4579C17.53 20.3816 18.1972 21.1305 19.0202 21.1305H19.4218C20.2448 21.1305 20.912 20.3816 20.912 19.4579V14.6087C20.912 12.6493 20.0761 10.8005 18.6767 9.61704C17.7998 8.87543 17.1047 8.29116 16.5094 7.85013C15.9134 7.40863 15.4464 7.1331 15.0294 6.98997ZM17.0589 6.91576C17.6854 7.37986 18.4068 7.98701 19.277 8.72291C19.3496 8.78433 19.421 8.84728 19.491 8.91172C19.508 8.92467 19.5245 8.93892 19.5403 8.95452L22.8302 12.1938C23.0372 12.3977 23.0578 12.7514 22.8761 12.9838C22.6945 13.2161 22.3794 13.2393 22.1723 13.0354L21.632 12.5034C21.8137 13.1785 21.9095 13.8868 21.9095 14.6087V19.4579C21.9095 20.9999 20.7957 22.25 19.4218 22.25H19.0202C17.6463 22.25 16.5325 20.9999 16.5325 19.4579V16.5157C16.5325 14.905 15.3692 13.5995 13.9342 13.5995C12.5751 13.5995 11.4733 14.836 11.4733 16.3614V19.4579C11.4733 20.9999 10.3595 22.25 8.98556 22.25H8.58313C7.20917 22.25 6.09536 20.9999 6.09536 19.4579V14.8262C6.09536 14.0314 6.2112 13.2544 6.42943 12.5204L5.81674 13.0895C5.60453 13.2866 5.29013 13.2533 5.11452 13.0152C4.93891 12.7769 4.96858 12.4241 5.18079 12.227L8.55086 9.09694C8.57239 9.07695 8.59498 9.05932 8.61837 9.04404C8.74178 8.93569 8.86905 8.83189 9.00005 8.7329C10.147 7.86625 11.0606 7.1789 11.8302 6.68922C13.1548 5.84641 14.1582 5.52021 15.3212 5.91937C15.8729 6.10874 16.433 6.4521 17.0589 6.91576Z" fill="#888888"/>
<path d="M15.0294 6.98997L15.0659 6.88357V6.88357L15.0294 6.98997ZM12.3221 7.66316L12.3825 7.75807L12.3221 7.66316ZM9.55711 9.66159L9.48929 9.57184L9.48929 9.57184L9.55711 9.66159ZM18.6767 9.61704L18.7494 9.53115L18.7494 9.53114L18.6767 9.61704ZM16.5094 7.85013L16.4424 7.94052L16.4424 7.94052L16.5094 7.85013ZM17.0589 6.91576L17.1259 6.82536L17.0589 6.91576ZM19.277 8.72291L19.2043 8.80881L19.2044 8.80884L19.277 8.72291ZM19.491 8.91172L19.4145 8.99486L19.4227 9.0011L19.491 8.91172ZM19.5403 8.95452L19.4613 9.03465L19.4614 9.03468L19.5403 8.95452ZM22.8302 12.1938L22.9091 12.1136L22.8302 12.1938ZM22.8762 12.9838L22.9648 13.0531L22.9648 13.053L22.8762 12.9838ZM22.1723 13.0354L22.0934 13.1156L22.0934 13.1156L22.1723 13.0354ZM21.632 12.5034L21.711 12.4232L21.4158 12.1325L21.5234 12.5326L21.632 12.5034ZM6.42943 12.5204L6.53726 12.5525L6.65466 12.1577L6.35287 12.438L6.42943 12.5204ZM5.81674 13.0895L5.8933 13.172L5.8933 13.172L5.81674 13.0895ZM5.11452 13.0152L5.02396 13.0819L5.02398 13.082L5.11452 13.0152ZM5.18079 12.227L5.25735 12.3094L5.25735 12.3094L5.18079 12.227ZM8.55086 9.09694L8.4743 9.01451L8.4743 9.01451L8.55086 9.09694ZM8.61837 9.04404L8.6799 9.13822L8.68659 9.13385L8.69259 9.12858L8.61837 9.04404ZM9.00005 8.7329L8.93222 8.64315L8.93222 8.64315L9.00005 8.7329ZM11.8302 6.68922L11.8906 6.78414V6.78414L11.8302 6.68922ZM15.3212 5.91937L15.2846 6.02578V6.02578L15.3212 5.91937ZM15.0659 6.88357C14.6597 6.74413 14.2692 6.71451 13.8212 6.82334C13.3775 6.93111 12.882 7.17354 12.2617 7.56824L12.3825 7.75807C12.9953 7.36819 13.4662 7.14112 13.8743 7.04199C14.278 6.94392 14.6247 6.97 14.9929 7.09638L15.0659 6.88357ZM12.2617 7.56824C11.528 8.0351 10.6455 8.69817 9.48929 9.57184L9.62493 9.75135C10.7836 8.87584 11.6581 8.21901 12.3825 7.75807L12.2617 7.56824ZM9.48929 9.57184C7.92485 10.754 6.98035 12.7235 6.98035 14.8262H7.20535C7.20535 12.7886 8.12095 10.8878 9.62493 9.75135L9.48929 9.57184ZM6.98035 14.8262V19.4579H7.20535V14.8262H6.98035ZM6.98035 19.4579C6.98035 20.4312 7.68608 21.243 8.58313 21.243V21.018C7.83406 21.018 7.20535 20.3321 7.20535 19.4579H6.98035ZM8.58313 21.243H8.98555V21.018H8.58313V21.243ZM8.98555 21.243C9.8826 21.243 10.5883 20.4312 10.5883 19.4579H10.3633C10.3633 20.3321 9.73462 21.018 8.98555 21.018V21.243ZM10.5883 19.4579V16.3614H10.3633V19.4579H10.5883ZM10.5883 16.3614C10.5883 14.2673 12.0982 12.5924 13.9342 12.5924V12.3674C11.9502 12.3674 10.3633 14.1682 10.3633 16.3614H10.5883ZM13.9342 12.5924C15.8461 12.5924 17.4175 14.3363 17.4175 16.5157H17.6425C17.6425 14.2372 15.9941 12.3674 13.9342 12.3674V12.5924ZM17.4175 16.5157V19.4579H17.6425V16.5157H17.4175ZM17.4175 19.4579C17.4175 20.4312 18.1232 21.243 19.0202 21.243V21.018C18.2712 21.018 17.6425 20.3321 17.6425 19.4579H17.4175ZM19.0202 21.243H19.4218V21.018H19.0202V21.243ZM19.4218 21.243C20.3188 21.243 21.0245 20.4312 21.0245 19.4579H20.7995C20.7995 20.3321 20.1708 21.018 19.4218 21.018V21.243ZM21.0245 19.4579V14.6087H20.7995V19.4579H21.0245ZM21.0245 14.6087C21.0245 12.6183 20.1755 10.7373 18.7494 9.53115L18.6041 9.70294C19.9766 10.8637 20.7995 12.6803 20.7995 14.6087H21.0245ZM18.7494 9.53114C17.8732 8.79018 17.1752 8.20336 16.5763 7.75973L16.4424 7.94052C17.0343 8.37897 17.7263 8.96067 18.6041 9.70295L18.7494 9.53114ZM16.5763 7.75973C15.9772 7.3159 15.4992 7.0323 15.0659 6.88357L14.9929 7.09638C15.3936 7.23391 15.8496 7.50136 16.4424 7.94052L16.5763 7.75973ZM16.9919 7.00616C17.6149 7.46767 18.3334 8.07226 19.2043 8.80881L19.3496 8.63701C18.4802 7.90175 17.7558 7.29206 17.1259 6.82536L16.9919 7.00616ZM19.2044 8.80884C19.2758 8.86921 19.3459 8.93112 19.4149 8.99452L19.5672 8.82891C19.496 8.76344 19.4235 8.69944 19.3496 8.63699L19.2044 8.80884ZM19.4227 9.0011C19.436 9.01126 19.4489 9.02244 19.4613 9.03465L19.6192 8.87438C19.6 8.85541 19.5799 8.83807 19.5593 8.82233L19.4227 9.0011ZM19.4614 9.03468L22.7512 12.274L22.9091 12.1136L19.6192 8.87435L19.4614 9.03468ZM22.7512 12.274C22.9166 12.4368 22.9348 12.7261 22.7875 12.9145L22.9648 13.053C23.1808 12.7767 23.1579 12.3586 22.9091 12.1136L22.7512 12.274ZM22.7875 12.9145C22.6461 13.0954 22.4091 13.1106 22.2513 12.9552L22.0934 13.1156C22.3497 13.3679 22.7429 13.3368 22.9648 13.0531L22.7875 12.9145ZM22.2513 12.9553L21.711 12.4232L21.5531 12.5835L22.0934 13.1156L22.2513 12.9553ZM21.5234 12.5326C21.7025 13.1982 21.797 13.8968 21.797 14.6087H22.022C22.022 13.8769 21.9249 13.1587 21.7407 12.4741L21.5234 12.5326ZM21.797 14.6087V19.4579H22.022V14.6087H21.797ZM21.797 19.4579C21.797 20.9503 20.7217 22.1375 19.4218 22.1375V22.3625C20.8697 22.3625 22.022 21.0495 22.022 19.4579H21.797ZM19.4218 22.1375H19.0202V22.3625H19.4218V22.1375ZM19.0202 22.1375C17.7203 22.1375 16.645 20.9503 16.645 19.4579H16.42C16.42 21.0495 17.5723 22.3625 19.0202 22.3625V22.1375ZM16.645 19.4579V16.5157H16.42V19.4579H16.645ZM16.645 16.5157C16.645 14.8555 15.4431 13.487 13.9342 13.487V13.712C15.2952 13.712 16.42 14.9546 16.42 16.5157H16.645ZM13.9342 13.487C12.5011 13.487 11.3608 14.7864 11.3608 16.3614H11.5858C11.5858 14.8855 12.6491 13.712 13.9342 13.712V13.487ZM11.3608 16.3614V19.4579H11.5858V16.3614H11.3608ZM11.3608 19.4579C11.3608 20.9503 10.2855 22.1375 8.98556 22.1375V22.3625C10.4335 22.3625 11.5858 21.0495 11.5858 19.4579H11.3608ZM8.98556 22.1375H8.58313V22.3625H8.98556V22.1375ZM8.58313 22.1375C7.28316 22.1375 6.20786 20.9503 6.20786 19.4579H5.98286C5.98286 21.0495 7.13518 22.3625 8.58313 22.3625V22.1375ZM6.20786 19.4579V14.8262H5.98286V19.4579H6.20786ZM6.20786 14.8262C6.20786 14.0423 6.32211 13.2761 6.53726 12.5525L6.3216 12.4884C6.10029 13.2326 5.98286 14.0204 5.98286 14.8262H6.20786ZM6.35287 12.438L5.74018 13.0071L5.8933 13.172L6.50599 12.6029L6.35287 12.438ZM5.74018 13.0071C5.57916 13.1566 5.34243 13.1347 5.20506 12.9484L5.02398 13.082C5.23783 13.3719 5.62989 13.4166 5.8933 13.172L5.74018 13.0071ZM5.20508 12.9485C5.06225 12.7547 5.08848 12.4663 5.25735 12.3094L5.10423 12.1446C4.84868 12.3819 4.81557 12.7992 5.02396 13.0819L5.20508 12.9485ZM5.25735 12.3094L8.62742 9.17937L8.4743 9.01451L5.10423 12.1446L5.25735 12.3094ZM8.62742 9.17938C8.64436 9.16365 8.66193 9.14996 8.6799 9.13822L8.55684 8.94986C8.52804 8.96867 8.50043 8.99024 8.4743 9.01451L8.62742 9.17938ZM8.69259 9.12858C8.81396 9.02203 8.93909 8.91997 9.06787 8.82266L8.93222 8.64315C8.79901 8.74381 8.66961 8.84935 8.54415 8.95949L8.69259 9.12858ZM9.06787 8.82266C10.216 7.9551 11.1256 7.27086 11.8906 6.78414L11.7698 6.59431C10.9955 7.08694 10.078 7.7774 8.93222 8.64315L9.06787 8.82266ZM11.8906 6.78414C13.2054 5.94753 14.1707 5.64343 15.2846 6.02578L15.3577 5.81297C14.1457 5.39698 13.1041 5.74529 11.7698 6.59431L11.8906 6.78414ZM15.2846 6.02578C15.82 6.20955 16.3692 6.54486 16.9919 7.00616L17.1259 6.82536C16.4968 6.35935 15.9257 6.00792 15.3577 5.81297L15.2846 6.02578Z" fill="#888888"/>
</svg>