<svg xmlns="http://www.w3.org/2000/svg" width="22px" height="22px" viewBox="0 0 28 28" version="1.1"><title>Icons/Home</title><g id="Icons/Home" stroke="none" stroke-width="1" fill="none" fill-rule="evenodd"><rect id="Bound" x="0" y="0" width="28" height="28"/><path d="M15.6012929,4.22844058 C14.3965896,3.85791062 13.3080866,4.0731561 11.3899763,5.16681749 C10.2558565,5.81346243 8.88934778,6.73339334 7.08884949,7.95251972 C4.70229792,9.56848806 3.25555728,12.2660313 3.25555728,15.151611 L3.25555728,21.6079404 C3.25555728,22.8955953 4.29345013,23.9394502 5.57376532,23.9394502 L6.19975371,23.9394502 C7.4800689,23.9394502 8.51796176,22.8955953 8.51796176,21.6079404 L8.51796176,17.2916458 C8.51796176,14.3034861 10.9265167,11.8810113 13.8976049,11.8810113 C16.9868301,11.8810113 19.491087,14.3997411 19.491087,17.5066958 L19.491087,21.6079404 C19.491087,22.8955953 20.5289565,23.9394502 21.80926,23.9394502 L22.433895,23.9394502 C23.7141986,23.9394502 24.7520681,22.8955953 24.7520681,21.6079404 L24.7520681,14.848471 C24.7520681,12.1172213 23.4516978,9.54008306 21.2749252,7.89041972 C19.9107381,6.85665033 18.8295851,6.04222041 17.9034826,5.42744197 C16.9764467,4.81201953 16.2499614,4.42795406 15.6012929,4.22844058 Z M18.7583016,4.12499809 C19.7328209,4.77193053 20.8550407,5.61824995 22.2086111,6.64406135 C22.3216614,6.72966734 22.4326117,6.81742383 22.5415787,6.90723882 C22.5679454,6.92529382 22.5936122,6.94516582 22.6182289,6.96690082 L27.7358263,11.4822604 C28.0579439,11.7664713 28.0899106,12.2594763 27.8073432,12.5834313 C27.5247757,12.9072712 27.0346577,12.9395862 26.7125402,12.6554213 L25.8720712,11.9137863 C26.1546386,12.8548312 26.303739,13.8422211 26.303739,14.848471 L26.303739,21.6079404 C26.303739,23.7574052 24.5711176,25.5 22.433895,25.5 L21.80926,25.5 C19.6720374,25.5 17.939416,23.7574052 17.939416,21.6079404 L17.939416,17.5066958 C17.939416,15.261551 16.1297944,13.4416762 13.8976049,13.4416762 C11.7834824,13.4416762 10.0696327,15.165296 10.0696327,17.2916458 L10.0696327,21.6079404 C10.0696327,23.7574052 8.33703459,25.5 6.19975371,25.5 L5.57376532,25.5 C3.43648444,25.5 1.70388634,23.7574052 1.70388634,21.6079404 L1.70388634,15.151611 C1.70388634,14.0437011 1.88409017,12.9606312 2.2235561,11.9375913 L1.27048015,12.7308613 C0.94037674,13.0055962 0.451318061,12.9591362 0.17814231,12.6272463 C-0.0950343754,12.2951263 -0.0488814984,11.8032713 0.281226927,11.5285479 L5.52356352,7.1654368 C5.55705861,7.1375608 5.59219871,7.1129853 5.62857547,7.0916873 C5.820551,6.94065782 6.01852321,6.79596483 6.22229377,6.65798785 C8.00644702,5.44992446 9.42756759,4.49180206 10.6247226,3.80921962 C12.6852016,2.63439124 14.2460892,2.17968128 16.0551275,2.73609723 C16.9133299,3.0000567 17.7847156,3.47868666 18.7583016,4.12499809 Z" id="Shape" fill="#888888"/></g></svg>