<svg xmlns="http://www.w3.org/2000/svg" width="28" height="28" viewBox="0 0 28 28" fill="none">
<path fill-rule="evenodd" clip-rule="evenodd" d="M22.1981 13.9945H12.6223H22.1981ZM22.1981 13.9945L19.0746 11.2617L22.1981 13.9945ZM22.1981 13.9945L19.0746 16.7555L22.1981 13.9945Z" fill="#888888"/>
<path d="M22.1981 14.557C22.5087 14.557 22.7606 14.3052 22.7606 13.9945C22.7606 13.6839 22.5087 13.432 22.1981 13.432V14.557ZM12.6223 13.432C12.3117 13.432 12.0598 13.6839 12.0598 13.9945C12.0598 14.3052 12.3117 14.557 12.6223 14.557V13.432ZM21.8277 14.4179C22.0615 14.6224 22.4169 14.5987 22.6214 14.3649C22.826 14.1311 22.8023 13.7757 22.5685 13.5712L21.8277 14.4179ZM19.445 10.8384C19.2112 10.6338 18.8558 10.6575 18.6512 10.8913C18.4467 11.1251 18.4704 11.4805 18.7042 11.6851L19.445 10.8384ZM22.5706 14.416C22.8034 14.2102 22.8253 13.8548 22.6196 13.622C22.4138 13.3892 22.0583 13.3673 21.8256 13.5731L22.5706 14.416ZM18.702 16.3341C18.4693 16.5398 18.4474 16.8953 18.6531 17.1281C18.8589 17.3608 19.2144 17.3827 19.4471 17.177L18.702 16.3341ZM22.1981 13.432H12.6223V14.557H22.1981V13.432ZM22.5685 13.5712L19.445 10.8384L18.7042 11.6851L21.8277 14.4179L22.5685 13.5712ZM21.8256 13.5731L18.702 16.3341L19.4471 17.177L22.5706 14.416L21.8256 13.5731Z" fill="#888888"/>
<path d="M13.7719 5.75H9.25184C7.72572 5.75 6.49104 6.99231 6.50005 8.51856L6.56488 19.5144C6.57375 21.0283 7.80321 22.25 9.31667 22.25H14.679" stroke="#888888" stroke-width="1.125" stroke-linecap="round" stroke-linejoin="round"/>
</svg>