<svg xmlns="http://www.w3.org/2000/svg" width="28" height="28" viewBox="0 0 28 28" fill="none" style="margin-right:8px"><path d="M13.6163 23C13.1777 23 12.7569 22.8269 12.4466 22.519C11.5047 21.5842 11.958 20.6753 11.958 20.6753L15.2704 20.6753C15.2704 20.6753 15.7278 21.5842 14.7859 22.519C14.4757 22.8269 14.0549 23 13.6163 23Z" stroke="#888888" stroke-width="1.4"/><path d="M6.30035 18.8462L6.3 18.8573V18.8685C6.3 19.3387 6.48807 19.7888 6.82158 20.1199C7.15492 20.4511 7.606 20.6361 8.07522 20.6361H19.1472L19.1473 20.6361H19.1573C19.6193 20.6361 20.0642 20.4569 20.3965 20.1345C20.7285 19.8123 20.9216 19.3728 20.9324 18.9095L20.9326 18.8982L20.9325 18.8868C20.9294 18.5395 20.8264 18.2006 20.6362 17.9102L20.6363 17.9102L20.6323 17.9042C19.776 16.6256 19.2383 15.1645 19.0617 13.6413L19.0431 13.4654L18.9439 12.5303C18.9439 12.5302 18.9439 12.53 18.9439 12.5298C18.7595 10.7659 17.7039 9.21098 16.1314 8.37971L16.1314 8.37969C14.5589 7.54854 12.6736 7.54854 11.1012 8.37969L11.1011 8.37972C9.52866 9.21105 8.47303 10.7659 8.2887 12.5298C8.28868 12.53 8.28866 12.5302 8.28865 12.5303L8.18962 13.4654L8.1896 13.4654L8.18906 13.4709C8.03393 15.0554 7.48845 16.5779 6.6003 17.9042L6.60027 17.9042L6.59658 17.9098C6.41377 18.1886 6.31097 18.5124 6.30035 18.8462Z" stroke="#888888" stroke-width="1.4"/><path d="M15.6407 6.43638C15.6407 7.22967 14.7444 7.6539 13.6132 7.6539C12.482 7.6539 11.5441 7.22967 11.5441 6.43638C11.5441 5.64309 12.4612 5 13.5924 5C14.7236 5 15.6407 5.64309 15.6407 6.43638Z" stroke="#888888" stroke-width="1.4"/></svg>