<svg xmlns="http://www.w3.org/2000/svg" width="18" height="18" viewBox="0 0 18 18" fill="none"><path d="M9 0.75C9.65091 0.75 10.1786 1.27766 10.1786 1.92857V7.82143H16.0714C16.7223 7.82143 17.25 8.34909 17.25 9C17.25 9.65091 16.7223 10.1786 16.0714 10.1786H10.1786V16.0714C10.1786 16.7223 9.65091 17.25 9 17.25C8.34909 17.25 7.82143 16.7223 7.82143 16.0714V10.1786H1.92857C1.27766 10.1786 0.75 9.65091 0.75 9C0.75 8.34909 1.27766 7.82143 1.92857 7.82143H7.82143V1.92857C7.82143 1.27766 8.34909 0.75 9 0.75Z" fill="#888888"/></svg>