<svg xmlns="http://www.w3.org/2000/svg" width="28" height="28" viewBox="0 0 28 28" fill="none" style="height: 28px; width: 28px; margin-right: 8px;"><path fill-rule="evenodd" clip-rule="evenodd" d="M18.373 17.3204L22.7823 21.7275L22.7823 21.7275C23.0732 22.0184 23.0732 22.4917 22.7786 22.7808C22.6387 22.9227 22.4509 23 22.2503 23C22.0514 23 21.8637 22.9227 21.7219 22.7808L17.3163 18.3738C15.9687 19.4788 14.2842 20.0846 12.5407 20.0846C8.3839 20.0846 5 16.7016 5 12.5414C5 11.5248 5.20067 10.5377 5.59464 9.60771C5.97572 8.70902 6.52067 7.9024 7.21287 7.20994C7.90507 6.51747 8.71142 5.97419 9.60984 5.59299C10.5395 5.19889 11.5263 5 12.5425 5C16.6994 5 20.0833 8.38301 20.0833 12.5432C20.0833 14.2854 19.4776 15.9724 18.373 17.3204ZM12.5427 18.5913C15.8768 18.5913 18.5904 15.8786 18.5904 12.5416C18.5904 9.20633 15.8768 6.4918 12.5427 6.4918C9.20856 6.4918 6.49494 9.20633 6.49494 12.5416C6.49494 15.8768 9.20677 18.5913 12.5427 18.5913Z" fill="#888888"/></svg>