<svg xmlns="http://www.w3.org/2000/svg" width="22" height="22" viewBox="0 0 24 24" fill="none"><path fill-rule="evenodd" clip-rule="evenodd" d="M17.3448 16.0583L22.7339 21.4447L22.7339 21.4447C23.0894 21.8003 23.0894 22.3788 22.7294 22.7321C22.5584 22.9055 22.3289 23 22.0837 23C21.8407 23 21.6111 22.9055 21.4379 22.7321L16.0533 17.3457C14.4062 18.6963 12.3473 19.4368 10.2164 19.4368C5.13588 19.4368 1 15.302 1 10.2173C1 8.97481 1.24526 7.76832 1.72678 6.63165C2.19254 5.53325 2.8586 4.54738 3.70462 3.70103C4.55064 2.85469 5.53618 2.19068 6.63425 1.72476C7.77055 1.24309 8.97659 1 10.2187 1C15.2992 1 19.4351 5.13479 19.4351 10.2195C19.4351 12.3489 18.6948 14.4107 17.3448 16.0583ZM10.2189 17.6116C14.2939 17.6116 17.6106 14.296 17.6106 10.2175C17.6106 6.14108 14.2939 2.82332 10.2189 2.82332C6.14388 2.82332 2.82723 6.14108 2.82723 10.2175C2.82723 14.2939 6.1417 17.6116 10.2189 17.6116Z" fill="#888888"/></svg>