<svg xmlns="http://www.w3.org/2000/svg" width="22" height="22" viewBox="0 0 24 24" fill="none"><path d="M11.9982 24C10.0383 23.9998 8.13208 23.3599 6.569 22.1773C5.00609 20.9947 3.8719 19.3342 3.33909 17.4483C2.80611 15.5623 2.90355 13.5538 3.61645 11.7281C4.32937 9.90239 5.61876 8.3594 7.28876 7.33367C7.48477 7.21232 7.72563 7.18788 7.94207 7.26739C8.15833 7.3469 8.32622 7.52148 8.39702 7.74093C8.46782 7.96021 8.43384 8.20008 8.30479 8.39107C7.87362 9.03217 6.74878 11.0082 6.74878 12.3767C6.74175 13.0749 7.01593 13.7467 7.50973 14.2404C8.0035 14.7342 8.67524 15.0084 9.37341 15.0014C10.6782 15.0014 11.998 14.1916 11.998 12.3767C11.998 11.668 11.6231 11.0382 11.2257 10.3033C10.1009 8.28613 8.66487 5.77779 13.6929 0.24699C13.8522 0.0705628 14.0859 -0.0196604 14.3224 0.00360782C14.5591 0.0267072 14.7706 0.160786 14.8927 0.36483C15.0147 0.568875 15.0328 0.818625 14.9414 1.03807C13.4004 4.78754 14.9414 6.1335 17.0973 8.00438C18.9233 9.60175 20.9968 11.409 20.9968 15.0011C20.9968 17.3877 20.0487 19.6766 18.3611 21.3641C16.6735 23.0517 14.3846 23.9998 11.9981 23.9998L11.9982 24ZM5.32417 11.5667C4.63268 12.9165 4.3667 14.4443 4.56138 15.9483C4.75605 17.4524 5.40216 18.8621 6.41469 19.9915C7.42705 21.1207 8.75814 21.9164 10.2321 22.2737C11.7061 22.6309 13.2538 22.5328 14.6711 21.9921C16.0882 21.4516 17.3081 20.4942 18.1697 19.2459C19.0314 17.9977 19.4942 16.5177 19.4974 15.001C19.4974 12.0915 17.8513 10.6555 16.1228 9.13684C14.5743 7.78334 12.872 6.30232 12.8457 3.73373C10.9072 6.67709 11.7209 8.09084 12.5421 9.56792C13.0071 10.4042 13.4982 11.2739 13.4982 12.3763C13.5362 13.4814 13.114 14.5527 12.332 15.3346C11.5501 16.1166 10.4788 16.5388 9.37374 16.5008C8.27619 16.513 7.21995 16.0823 6.44396 15.3061C5.6678 14.5301 5.2371 13.4739 5.24931 12.3763C5.25099 12.1047 5.2761 11.8338 5.3243 11.5665L5.32417 11.5667Z" fill="#888888"/></svg>