<svg xmlns="http://www.w3.org/2000/svg" width="60" height="60" viewBox="0 0 60 60" fill="none"><g opacity="0.35" clip-path="url(#clip0_14_6240)"><path d="M0 35.0973C0.0435089 34.9808 0.0959754 34.8682 0.130527 34.7492C0.505471 33.4451 1.74163 32.5749 3.01363 32.7246C4.44686 32.8923 5.47828 33.9864 5.48468 35.4274C5.50131 39.1298 5.49107 42.8334 5.49107 46.5357C5.49107 51.2516 8.75424 54.5073 13.4788 54.5086C24.5006 54.5086 35.5237 54.5086 46.5455 54.5086C51.2701 54.5086 54.5256 51.2529 54.5268 46.5293C54.5268 42.8475 54.5217 39.1669 54.5307 35.485C54.5332 34.245 55.2691 33.2301 56.3888 32.8564C57.4739 32.4943 58.6999 32.8091 59.3538 33.7548C59.6762 34.2219 59.9501 34.8375 59.9539 35.3891C59.9795 39.6225 60.0832 43.8636 59.872 48.0881C59.5854 53.8444 54.8826 58.8393 49.197 59.7517C48.6749 59.8349 48.1528 59.9181 47.632 60H12.3859C12.2439 59.9642 12.1031 59.9104 11.9585 59.8964C6.35869 59.3486 1.87728 55.5682 0.46708 50.1664C0.249536 49.3307 0.152281 48.4643 0 47.612C0 43.44 0 39.2693 0 35.0973H0Z" fill="#888888"/><path d="M32.7226 9.3358C32.7226 9.76452 32.7226 10.0128 32.7226 10.2611C32.7226 21.2644 32.7226 32.2677 32.7226 43.271C32.7226 44.8976 31.9804 45.9355 30.5971 46.2657C29.0346 46.6394 27.4427 45.4863 27.316 43.8841C27.293 43.5872 27.2981 43.289 27.2981 42.9908C27.2981 32.0732 27.2981 21.1543 27.2981 10.2368C27.2981 9.99104 27.2981 9.74533 27.2981 9.50089C27.2047 9.4369 27.1125 9.3742 27.0191 9.31021C26.9065 9.51625 26.8361 9.76196 26.6774 9.92193C23.0585 13.5564 19.4268 17.1769 15.8066 20.8101C15.1374 21.482 14.3683 21.8812 13.4111 21.7622C12.3029 21.6253 11.5121 21.0174 11.1397 19.9603C10.7673 18.9032 10.9912 17.9281 11.7821 17.1359C17.204 11.6957 22.6337 6.26056 28.0761 0.836956C29.2048 -0.287948 30.8249 -0.27771 31.9625 0.856153C37.3896 6.26439 42.8064 11.6816 48.2156 17.109C49.3366 18.2339 49.3149 19.9347 48.2271 21.0008C47.1317 22.0745 45.4835 22.0566 44.3369 20.915C40.6719 17.2664 37.021 13.6038 33.3637 9.94753C33.1999 9.78372 33.0297 9.62759 32.7239 9.33453L32.7226 9.3358Z" fill="#888888"/></g><defs><clipPath id="clip0_14_6240"><rect width="60" height="60" fill="white"/></clipPath></defs></svg>