<svg width="40" height="40" viewBox="0 0 40 40" fill="none" xmlns="http://www.w3.org/2000/svg"><path d="M20 12.0001C20.6312 12.0001 21.1428 12.5118 21.1428 13.1429V18.8572H26.8571C27.4883 18.8572 28 19.3689 28 20.0001C28 20.6313 27.4883 21.1429 26.8571 21.1429H21.1428V26.8572C21.1428 27.4884 20.6312 28.0001 20 28.0001C19.3688 28.0001 18.8571 27.4884 18.8571 26.8572V21.1429H13.1428C12.5116 21.1429 12 20.6313 12 20.0001C12 19.3689 12.5116 18.8572 13.1428 18.8572H18.8571V13.1429C18.8571 12.5118 19.3688 12.0001 20 12.0001Z" fill="white"></path><path d="M20 12.0001C20.6312 12.0001 21.1428 12.5118 21.1428 13.1429V18.8572H26.8571C27.4883 18.8572 28 19.3689 28 20.0001C28 20.6313 27.4883 21.1429 26.8571 21.1429H21.1428V26.8572C21.1428 27.4884 20.6312 28.0001 20 28.0001C19.3688 28.0001 18.8571 27.4884 18.8571 26.8572V21.1429H13.1428C12.5116 21.1429 12 20.6313 12 20.0001C12 19.3689 12.5116 18.8572 13.1428 18.8572H18.8571V13.1429C18.8571 12.5118 19.3688 12.0001 20 12.0001Z" fill="white"></path></svg>